<svg xmlns="http://www.w3.org/2000/svg" width="703" height="1176" fill="none"><path stroke="#fff" stroke-width="5" d="M52 774V142.818A6.818 6.818 0 0 1 58.818 136h5.455C98.916 136 127 107.916 127 73.273A6.273 6.273 0 0 1 133.273 67h436.954a6.273 6.273 0 0 1 6.273 6.273c0 34.643 28.084 62.727 62.727 62.727h4.546a6.727 6.727 0 0 1 6.727 6.727V774c0 7.732-6.268 14-14 14H66c-7.732 0-14-6.268-14-14Zm0 130v130.18c0 3.77 3.053 6.82 6.818 6.82h5.455c34.643 0 62.727 28.08 62.727 62.73 0 3.46 2.808 6.27 6.273 6.27h436.954a6.273 6.273 0 0 0 6.273-6.27c0-34.65 28.084-62.73 62.727-62.73h4.546a6.727 6.727 0 0 0 6.727-6.73V904c0-7.732-6.268-14-14-14H66c-7.732 0-14 6.268-14 14Z"/></svg>